{"title":"The Damned United 2009 BRRip H264 AAC - IceBane","uid":5310619,"size":1818797930,"categoryP":"video","categoryS":"movies","magnet":"?xt=urn:btih:7e0fbb64e8586d57c31a692580647212de21eb07&amp;dn=The+Damned+United+2009+BRRip+H264+AAC+-+IceBane&amp;tr=udp%3A%2F%2Ftracker.openbittorrent.com%3A80&amp;tr=udp%3A%2F%2Fopen.demonii.com%3A1337&amp;tr=udp%3A%2F%2Ftracker.coppersurfer.tk%3A6969&amp;tr=udp%3A%2F%2Fexodus.desync.com%3A6969","seeders":0,"leechers":1,"uploader":"IceBane","files":-1,"time":1264548556,"description":"General:\n\n\nTitle: The Damned United  \nDirector: Tom Hooper\nRelease Date: 27 March 2009 (UK)\nVideo Release Date: 23 February 2010 (US)\nRuntime: 98 min \nGenre: Biography | Drama | Sport \nColor: Color\nIMDb Rating:  7.6/10   4,031 votes         \nIMDB Link: http://www.imdb.com/title/tt1226271/\nStudio: Sony Pictures Classics/BBC Films \nLanguage: English\nSubtitles: English\nSample Video: yes\n\n\n\n\nPlot:\n\nTaking over England's top football club Leeds United, previously successful manager Brian Clough's abrasive approach and his clear dislike of the players' dirty style of play make it certain there is going to be friction. Glimpses of his earlier career help explain both his hostility to previous manager Don Revie and how much he is missing right-hand man Peter Taylor who has loyally stayed with Brighton &amp; Hove Albion.\n\n\n\nVideo:\n\n\nFormat                           : H.264/MPEG-4 AVC\nFormat/Info                      : Advanced Video Codec\nFormat profile                   : &lt;a class=&quot;__cf_email__&quot; href=&quot;/cdn-cgi/l/email-protection&quot; data-cfemail=&quot;8dc5e4eae5cdc1b9a3bc&quot;&gt;[email&amp;#160;protected]&lt;/a&gt;&lt;script cf-hash='f9e31' type=&quot;text/javascript&quot;&gt;\n/* &lt;![CDATA[ */!function(){try{var t=&quot;currentScript&quot;in document?document.currentScript:function(){for(var t=document.getElementsByTagName(&quot;script&quot;),e=t.length;e--;)if(t[e].getAttribute(&quot;cf-hash&quot;))return t[e]}();if(t&amp;&amp;t.previousSibling){var e,r,n,i,c=t.previousSibling,a=c.getAttribute(&quot;data-cfemail&quot;);if(a){for(e=&quot;&quot;,r=parseInt(a.substr(0,2),16),n=2;a.length-n;n+=2)i=parseInt(a.substr(n,2),16)^r,e+=String.fromCharCode(i);e=document.createTextNode(e),c.parentNode.replaceChild(e,c)}}}catch(u){}}();/* ]]&gt; */&lt;/script&gt;\nFormat settings, CABAC           : Yes\nFormat settings, ReFrames        : 4 frames\nCodec ID                         : avc1\nCodec ID/Info                    : Advanced Video Coding\nDuration                         : 1h 37mn\nBit rate mode                    : Variable\nBit rate                         : 1970 Kbps\nMaximum bit rate                 : 13.8 Mbps\nWidth                            : 1376 pixels\nHeight                           : 752 pixels\nDisplay aspect ratio             : 1.850\nFrame rate mode                  : Constant\nFrame rate                       : 23.976 fps\nResolution                       : 24 bits\nColorimetry                      : 4:2:0\nScan type                        : Progressive\nBits/(Pixel*Frame)               : 0.079\nStream size                      : 1.34 GiB (81%)\n\n\n\nAudio:\n\nFormat                           : mp4a: MPEG-4 AAC LC\nFormat/Info                      : Advanced Audio Codec\nFormat version                   : Version 4\nFormat profile                   : LC\nFormat settings, SBR             : No\nCodec ID                         : 40\nDuration                         : 1h 37mn\nBit rate mode                    : Variable\nBit rate                         : 470 Kbps\nMaximum bit rate                 : 588 Kbps\nChannel(s)                       : 6 channels\nChannel positions                : Front: L C R, Rear: L R, LFE\nSampling rate                    : 48.0 KHz\nResolution                       : 16 bits\nStream size                      : 328 MiB (19%)\n\n\nPlease Let me know if this works on a PS3.\n\nThanks and keep seeding.\n\nIceBane\n\n","torrent":{"xt":"urn:btih:7e0fbb64e8586d57c31a692580647212de21eb07","amp;dn":"The+Damned+United+2009+BRRip+H264+AAC+-+IceBane","amp;tr":["udp%3A%2F%2Ftracker.openbittorrent.com%3A80","udp%3A%2F%2Fopen.demonii.com%3A1337","udp%3A%2F%2Ftracker.coppersurfer.tk%3A6969","udp%3A%2F%2Fexodus.desync.com%3A6969"],"infoHash":"7e0fbb64e8586d57c31a692580647212de21eb07","infoHashBuffer":{"type":"Buffer","data":[126,15,187,100,232,88,109,87,195,26,105,37,128,100,114,18,222,33,235,7]},"announce":[],"urlList":[]}}